<mxfile host="app.diagrams.net" agent="Mozilla/5.0 (Windows NT 10.0; Win64; x64) AppleWebKit/537.36 (KHTML, like Gecko) Chrome/109.0.0.0 Safari/537.36" version="26.2.14">
  <diagram name="Page-1" id="7zawe6zohvr59qEg2-O9">
    <mxGraphModel dx="866" dy="1589" grid="0" gridSize="10" guides="1" tooltips="1" connect="1" arrows="1" fold="1" page="1" pageScale="1" pageWidth="850" pageHeight="1100" math="0" shadow="0">
      <root>
        <object label="" id="0">
          <mxCell />
        </object>
        <mxCell id="1" parent="0" />
        <object label="Moderator" Moderator="" id="SDAM3eLajE_gOhNM8xKB-1">
          <mxCell style="shape=umlActor;verticalLabelPosition=bottom;verticalAlign=top;outlineConnect=0;fillColor=#fff2cc;strokeColor=#d6b656;html=1;" parent="1" vertex="1">
            <mxGeometry x="167" y="417" width="30" height="60" as="geometry" />
          </mxCell>
        </object>
        <mxCell id="SDAM3eLajE_gOhNM8xKB-2" value="" style="rounded=0;whiteSpace=wrap;html=1;" parent="1" vertex="1">
          <mxGeometry x="293" y="-50" width="308" height="631" as="geometry" />
        </mxCell>
        <mxCell id="SDAM3eLajE_gOhNM8xKB-6" value="Foundit" style="text;html=1;align=center;verticalAlign=middle;whiteSpace=wrap;rounded=0;" parent="1" vertex="1">
          <mxGeometry x="418" y="-50" width="60" height="30" as="geometry" />
        </mxCell>
        <mxCell id="SDAM3eLajE_gOhNM8xKB-7" value="" style="ellipse;whiteSpace=wrap;html=1;fillColor=#d5e8d4;strokeColor=#82b366;" parent="1" vertex="1">
          <mxGeometry x="364" y="453" width="155" height="50" as="geometry" />
        </mxCell>
        <mxCell id="SDAM3eLajE_gOhNM8xKB-8" value="Διαχείριση Αναφορών" style="text;html=1;align=center;verticalAlign=middle;whiteSpace=wrap;rounded=0;" parent="1" vertex="1">
          <mxGeometry x="378" y="463" width="129" height="30" as="geometry" />
        </mxCell>
        <mxCell id="SDAM3eLajE_gOhNM8xKB-9" value="" style="ellipse;whiteSpace=wrap;html=1;fillColor=#d5e8d4;strokeColor=#82b366;" parent="1" vertex="1">
          <mxGeometry x="322" y="511" width="234" height="49" as="geometry" />
        </mxCell>
        <mxCell id="SDAM3eLajE_gOhNM8xKB-10" value="Διαγραφή/Μπλοκάρισμα χρηστών" style="text;html=1;align=center;verticalAlign=middle;whiteSpace=wrap;rounded=0;" parent="1" vertex="1">
          <mxGeometry x="350" y="520.5" width="188" height="30" as="geometry" />
        </mxCell>
        <mxCell id="SDAM3eLajE_gOhNM8xKB-12" value="" style="endArrow=none;html=1;rounded=0;entryX=0;entryY=0.5;entryDx=0;entryDy=0;" parent="1" source="SDAM3eLajE_gOhNM8xKB-1" target="SDAM3eLajE_gOhNM8xKB-9" edge="1">
          <mxGeometry width="50" height="50" relative="1" as="geometry">
            <mxPoint x="197" y="474" as="sourcePoint" />
            <mxPoint x="247" y="424" as="targetPoint" />
          </mxGeometry>
        </mxCell>
        <mxCell id="SDAM3eLajE_gOhNM8xKB-14" value="" style="endArrow=none;html=1;rounded=0;entryX=0;entryY=0.5;entryDx=0;entryDy=0;" parent="1" source="SDAM3eLajE_gOhNM8xKB-1" target="SDAM3eLajE_gOhNM8xKB-7" edge="1">
          <mxGeometry width="50" height="50" relative="1" as="geometry">
            <mxPoint x="288" y="467" as="sourcePoint" />
            <mxPoint x="338" y="417" as="targetPoint" />
          </mxGeometry>
        </mxCell>
        <mxCell id="SDAM3eLajE_gOhNM8xKB-15" value="Lost Item Owner" style="shape=umlActor;verticalLabelPosition=bottom;verticalAlign=top;html=1;outlineConnect=0;fillColor=#fff2cc;strokeColor=#d6b656;" parent="1" vertex="1">
          <mxGeometry x="167" y="5" width="30" height="60" as="geometry" />
        </mxCell>
        <mxCell id="SDAM3eLajE_gOhNM8xKB-16" value="Finder" style="shape=umlActor;verticalLabelPosition=bottom;verticalAlign=top;html=1;outlineConnect=0;fillColor=#fff2cc;strokeColor=#d6b656;" parent="1" vertex="1">
          <mxGeometry x="167" y="185" width="30" height="60" as="geometry" />
        </mxCell>
        <mxCell id="SDAM3eLajE_gOhNM8xKB-17" value="Local Business Owner" style="shape=umlActor;verticalLabelPosition=bottom;verticalAlign=top;html=1;outlineConnect=0;fillColor=#fff2cc;strokeColor=#d6b656;" parent="1" vertex="1">
          <mxGeometry x="167" y="304" width="30" height="60" as="geometry" />
        </mxCell>
        <mxCell id="SDAM3eLajE_gOhNM8xKB-18" value="" style="ellipse;whiteSpace=wrap;html=1;fillColor=#d5e8d4;strokeColor=#82b366;" parent="1" vertex="1">
          <mxGeometry x="299.5" y="355" width="284" height="38" as="geometry" />
        </mxCell>
        <mxCell id="SDAM3eLajE_gOhNM8xKB-20" value="Ορισμός καταστήματος (Local Business) ως drop-off point" style="text;html=1;align=center;verticalAlign=middle;whiteSpace=wrap;rounded=0;" parent="1" vertex="1">
          <mxGeometry x="315.5" y="361" width="257" height="30" as="geometry" />
        </mxCell>
        <mxCell id="SDAM3eLajE_gOhNM8xKB-21" value="" style="ellipse;whiteSpace=wrap;html=1;fillColor=#d5e8d4;strokeColor=#82b366;" parent="1" vertex="1">
          <mxGeometry x="300.5" y="401" width="282" height="40" as="geometry" />
        </mxCell>
        <mxCell id="SDAM3eLajE_gOhNM8xKB-22" value="Αποθήκευση αντικειμένου σε επιχείρηση drop-off point" style="text;html=1;align=center;verticalAlign=middle;whiteSpace=wrap;rounded=0;" parent="1" vertex="1">
          <mxGeometry x="323.5" y="408" width="249" height="30" as="geometry" />
        </mxCell>
        <mxCell id="SDAM3eLajE_gOhNM8xKB-25" value="" style="endArrow=none;html=1;rounded=0;entryX=0;entryY=0.5;entryDx=0;entryDy=0;" parent="1" source="SDAM3eLajE_gOhNM8xKB-17" target="SDAM3eLajE_gOhNM8xKB-18" edge="1">
          <mxGeometry width="50" height="50" relative="1" as="geometry">
            <mxPoint x="228" y="325" as="sourcePoint" />
            <mxPoint x="278" y="275" as="targetPoint" />
          </mxGeometry>
        </mxCell>
        <mxCell id="SDAM3eLajE_gOhNM8xKB-26" value="" style="endArrow=none;html=1;rounded=0;entryX=0;entryY=0.5;entryDx=0;entryDy=0;" parent="1" source="SDAM3eLajE_gOhNM8xKB-17" target="SDAM3eLajE_gOhNM8xKB-21" edge="1">
          <mxGeometry width="50" height="50" relative="1" as="geometry">
            <mxPoint x="228" y="408" as="sourcePoint" />
            <mxPoint x="278" y="358" as="targetPoint" />
          </mxGeometry>
        </mxCell>
        <mxCell id="SDAM3eLajE_gOhNM8xKB-28" value="" style="ellipse;whiteSpace=wrap;html=1;fillColor=#d5e8d4;strokeColor=#82b366;" parent="1" vertex="1">
          <mxGeometry x="339" y="-20" width="235" height="48" as="geometry" />
        </mxCell>
        <mxCell id="SDAM3eLajE_gOhNM8xKB-29" value="Δημοσίευση αγγελίας για χαμένο αντικείμενο(Lost item)" style="text;html=1;align=center;verticalAlign=middle;whiteSpace=wrap;rounded=0;" parent="1" vertex="1">
          <mxGeometry x="365" y="-9" width="189" height="30" as="geometry" />
        </mxCell>
        <mxCell id="SDAM3eLajE_gOhNM8xKB-30" value="" style="ellipse;whiteSpace=wrap;html=1;fillColor=#d5e8d4;strokeColor=#82b366;" parent="1" vertex="1">
          <mxGeometry x="306" y="39" width="280" height="50" as="geometry" />
        </mxCell>
        <mxCell id="SDAM3eLajE_gOhNM8xKB-31" value="Επικοινωνία από την πλευρά του ιδιοκτήτη χαμένου αντικειμένου" style="text;html=1;align=center;verticalAlign=middle;whiteSpace=wrap;rounded=0;" parent="1" vertex="1">
          <mxGeometry x="328.75" y="49" width="230.5" height="30" as="geometry" />
        </mxCell>
        <mxCell id="SDAM3eLajE_gOhNM8xKB-32" value="" style="ellipse;whiteSpace=wrap;html=1;fillColor=#d5e8d4;strokeColor=#82b366;" parent="1" vertex="1">
          <mxGeometry x="298" y="94.5" width="298" height="45" as="geometry" />
        </mxCell>
        <mxCell id="SDAM3eLajE_gOhNM8xKB-33" value="Αναζήτηση χαμένου αντικειμένου(Lost item) μέσω ήδη υπάρχουσας αγγελίας&amp;nbsp;" style="text;html=1;align=center;verticalAlign=middle;whiteSpace=wrap;rounded=0;" parent="1" vertex="1">
          <mxGeometry x="318" y="105" width="273" height="30" as="geometry" />
        </mxCell>
        <mxCell id="SDAM3eLajE_gOhNM8xKB-34" value="" style="endArrow=none;html=1;rounded=0;entryX=0;entryY=0.5;entryDx=0;entryDy=0;" parent="1" source="SDAM3eLajE_gOhNM8xKB-15" target="SDAM3eLajE_gOhNM8xKB-28" edge="1">
          <mxGeometry width="50" height="50" relative="1" as="geometry">
            <mxPoint x="222" y="51" as="sourcePoint" />
            <mxPoint x="272" y="1" as="targetPoint" />
          </mxGeometry>
        </mxCell>
        <mxCell id="SDAM3eLajE_gOhNM8xKB-35" value="" style="endArrow=none;html=1;rounded=0;entryX=0;entryY=0.5;entryDx=0;entryDy=0;entryPerimeter=0;" parent="1" source="SDAM3eLajE_gOhNM8xKB-15" target="SDAM3eLajE_gOhNM8xKB-30" edge="1">
          <mxGeometry width="50" height="50" relative="1" as="geometry">
            <mxPoint x="229" y="78" as="sourcePoint" />
            <mxPoint x="279" y="28" as="targetPoint" />
          </mxGeometry>
        </mxCell>
        <mxCell id="SDAM3eLajE_gOhNM8xKB-36" value="" style="endArrow=none;html=1;rounded=0;entryX=0;entryY=0.5;entryDx=0;entryDy=0;" parent="1" source="SDAM3eLajE_gOhNM8xKB-15" target="SDAM3eLajE_gOhNM8xKB-32" edge="1">
          <mxGeometry width="50" height="50" relative="1" as="geometry">
            <mxPoint x="226" y="132" as="sourcePoint" />
            <mxPoint x="276" y="82" as="targetPoint" />
          </mxGeometry>
        </mxCell>
        <mxCell id="SDAM3eLajE_gOhNM8xKB-37" value="" style="ellipse;whiteSpace=wrap;html=1;fillColor=#d5e8d4;strokeColor=#82b366;" parent="1" vertex="1">
          <mxGeometry x="360" y="153" width="189" height="43" as="geometry" />
        </mxCell>
        <mxCell id="SDAM3eLajE_gOhNM8xKB-38" value="" style="ellipse;whiteSpace=wrap;html=1;fillColor=#d5e8d4;strokeColor=#82b366;" parent="1" vertex="1">
          <mxGeometry x="327" y="202" width="245" height="43" as="geometry" />
        </mxCell>
        <mxCell id="SDAM3eLajE_gOhNM8xKB-39" value="" style="ellipse;whiteSpace=wrap;html=1;fillColor=#d5e8d4;strokeColor=#82b366;" parent="1" vertex="1">
          <mxGeometry x="319" y="253" width="259" height="43" as="geometry" />
        </mxCell>
        <mxCell id="SDAM3eLajE_gOhNM8xKB-40" value="" style="ellipse;whiteSpace=wrap;html=1;fillColor=#d5e8d4;strokeColor=#82b366;" parent="1" vertex="1">
          <mxGeometry x="323" y="304" width="247" height="43" as="geometry" />
        </mxCell>
        <mxCell id="SDAM3eLajE_gOhNM8xKB-41" value="" style="endArrow=none;html=1;rounded=0;entryX=0;entryY=0.5;entryDx=0;entryDy=0;" parent="1" source="SDAM3eLajE_gOhNM8xKB-15" target="SDAM3eLajE_gOhNM8xKB-37" edge="1">
          <mxGeometry width="50" height="50" relative="1" as="geometry">
            <mxPoint x="216" y="208" as="sourcePoint" />
            <mxPoint x="266" y="158" as="targetPoint" />
            <Array as="points">
              <mxPoint x="280" y="124" />
            </Array>
          </mxGeometry>
        </mxCell>
        <mxCell id="SDAM3eLajE_gOhNM8xKB-42" value="" style="endArrow=none;html=1;rounded=0;entryX=0;entryY=0.5;entryDx=0;entryDy=0;" parent="1" source="SDAM3eLajE_gOhNM8xKB-16" target="SDAM3eLajE_gOhNM8xKB-38" edge="1">
          <mxGeometry width="50" height="50" relative="1" as="geometry">
            <mxPoint x="232" y="265" as="sourcePoint" />
            <mxPoint x="282" y="215" as="targetPoint" />
          </mxGeometry>
        </mxCell>
        <mxCell id="SDAM3eLajE_gOhNM8xKB-43" value="" style="endArrow=none;html=1;rounded=0;entryX=0;entryY=0.5;entryDx=0;entryDy=0;" parent="1" source="SDAM3eLajE_gOhNM8xKB-16" target="SDAM3eLajE_gOhNM8xKB-39" edge="1">
          <mxGeometry width="50" height="50" relative="1" as="geometry">
            <mxPoint x="221" y="278" as="sourcePoint" />
            <mxPoint x="271" y="228" as="targetPoint" />
          </mxGeometry>
        </mxCell>
        <mxCell id="SDAM3eLajE_gOhNM8xKB-44" value="" style="endArrow=none;html=1;rounded=0;entryX=0;entryY=0.5;entryDx=0;entryDy=0;" parent="1" source="SDAM3eLajE_gOhNM8xKB-16" target="SDAM3eLajE_gOhNM8xKB-40" edge="1">
          <mxGeometry width="50" height="50" relative="1" as="geometry">
            <mxPoint x="216" y="318" as="sourcePoint" />
            <mxPoint x="266" y="268" as="targetPoint" />
          </mxGeometry>
        </mxCell>
        <mxCell id="SDAM3eLajE_gOhNM8xKB-45" value="Αξιολόγηση Ευρετή (Finder)" style="text;html=1;align=center;verticalAlign=middle;whiteSpace=wrap;rounded=0;" parent="1" vertex="1">
          <mxGeometry x="373" y="160" width="157" height="30" as="geometry" />
        </mxCell>
        <mxCell id="SDAM3eLajE_gOhNM8xKB-50" value="Η επικοινωνία από την πλευρά του Ευρετή" style="text;html=1;align=center;verticalAlign=middle;whiteSpace=wrap;rounded=0;" parent="1" vertex="1">
          <mxGeometry x="348.5" y="259.5" width="206" height="30" as="geometry" />
        </mxCell>
        <mxCell id="SDAM3eLajE_gOhNM8xKB-51" value="Συσχέτιση χαμένου αντικειμένου (Lost Item) με αγγελία" style="text;html=1;align=center;verticalAlign=middle;whiteSpace=wrap;rounded=0;" parent="1" vertex="1">
          <mxGeometry x="344" y="313" width="221" height="30" as="geometry" />
        </mxCell>
        <mxCell id="SDAM3eLajE_gOhNM8xKB-52" value="Δημοσίευση αγγελίας εύρεσης αντικειμένου (Found Item)" style="text;html=1;align=center;verticalAlign=middle;whiteSpace=wrap;rounded=0;" parent="1" vertex="1">
          <mxGeometry x="343" y="207" width="209" height="30" as="geometry" />
        </mxCell>
        <mxCell id="SDAM3eLajE_gOhNM8xKB-57" value="" style="endArrow=none;dashed=1;html=1;dashPattern=1 3;strokeWidth=2;rounded=0;startArrow=open;startFill=0;exitX=1;exitY=0.5;exitDx=0;exitDy=0;" parent="1" source="SDAM3eLajE_gOhNM8xKB-18" edge="1">
          <mxGeometry width="50" height="50" relative="1" as="geometry">
            <mxPoint x="583.5" y="424" as="sourcePoint" />
            <mxPoint x="684" y="386" as="targetPoint" />
          </mxGeometry>
        </mxCell>
        <mxCell id="SDAM3eLajE_gOhNM8xKB-58" value="&lt;font style=&quot;font-size: 13px;&quot;&gt;&amp;lt;&amp;lt;includes&amp;gt;&amp;gt;&lt;/font&gt;" style="edgeLabel;html=1;align=center;verticalAlign=middle;resizable=0;points=[];" parent="SDAM3eLajE_gOhNM8xKB-57" vertex="1" connectable="0">
          <mxGeometry x="0.5417" relative="1" as="geometry">
            <mxPoint x="43" y="3" as="offset" />
          </mxGeometry>
        </mxCell>
        <mxCell id="SDAM3eLajE_gOhNM8xKB-59" value="" style="endArrow=none;dashed=1;html=1;dashPattern=1 3;strokeWidth=2;rounded=0;exitX=1;exitY=0.5;exitDx=0;exitDy=0;" parent="1" source="SDAM3eLajE_gOhNM8xKB-21" edge="1">
          <mxGeometry width="50" height="50" relative="1" as="geometry">
            <mxPoint x="624" y="471" as="sourcePoint" />
            <mxPoint x="680" y="395" as="targetPoint" />
          </mxGeometry>
        </mxCell>
        <mxCell id="SDAM3eLajE_gOhNM8xKB-60" value="" style="endArrow=none;dashed=1;html=1;dashPattern=1 3;strokeWidth=2;rounded=0;exitX=1;exitY=0.5;exitDx=0;exitDy=0;" parent="1" source="SDAM3eLajE_gOhNM8xKB-32" edge="1">
          <mxGeometry width="50" height="50" relative="1" as="geometry">
            <mxPoint x="634" y="146" as="sourcePoint" />
            <mxPoint x="679" y="170" as="targetPoint" />
          </mxGeometry>
        </mxCell>
        <mxCell id="SDAM3eLajE_gOhNM8xKB-61" value="&amp;lt;&amp;lt;includes&amp;gt;&amp;gt;" style="text;whiteSpace=wrap;html=1;" parent="1" vertex="1">
          <mxGeometry x="645" y="166" width="81" height="36" as="geometry" />
        </mxCell>
        <mxCell id="SDAM3eLajE_gOhNM8xKB-62" value="" style="endArrow=none;dashed=1;html=1;dashPattern=1 3;strokeWidth=2;rounded=0;exitX=1;exitY=0.5;exitDx=0;exitDy=0;startArrow=open;startFill=0;" parent="1" source="SDAM3eLajE_gOhNM8xKB-38" edge="1" target="SDAM3eLajE_gOhNM8xKB-61">
          <mxGeometry width="50" height="50" relative="1" as="geometry">
            <mxPoint x="634" y="226" as="sourcePoint" />
            <mxPoint x="684" y="176" as="targetPoint" />
          </mxGeometry>
        </mxCell>
        <mxCell id="SDAM3eLajE_gOhNM8xKB-63" value="" style="endArrow=none;dashed=1;html=1;dashPattern=1 3;strokeWidth=2;rounded=0;exitX=1;exitY=0.5;exitDx=0;exitDy=0;entryX=0.5;entryY=1;entryDx=0;entryDy=0;" parent="1" source="SDAM3eLajE_gOhNM8xKB-40" edge="1" target="SDAM3eLajE_gOhNM8xKB-65">
          <mxGeometry width="50" height="50" relative="1" as="geometry">
            <mxPoint x="617" y="272" as="sourcePoint" />
            <mxPoint x="809" y="142" as="targetPoint" />
          </mxGeometry>
        </mxCell>
        <mxCell id="SDAM3eLajE_gOhNM8xKB-64" value="" style="endArrow=none;dashed=1;html=1;dashPattern=1 3;strokeWidth=2;rounded=0;exitX=1;exitY=0.5;exitDx=0;exitDy=0;startArrow=open;startFill=0;entryX=0.4;entryY=-0.033;entryDx=0;entryDy=0;entryPerimeter=0;" parent="1" source="SDAM3eLajE_gOhNM8xKB-28" edge="1" target="SDAM3eLajE_gOhNM8xKB-65">
          <mxGeometry width="50" height="50" relative="1" as="geometry">
            <mxPoint x="654" y="69" as="sourcePoint" />
            <mxPoint x="802" y="129" as="targetPoint" />
          </mxGeometry>
        </mxCell>
        <mxCell id="SDAM3eLajE_gOhNM8xKB-65" value="&amp;lt;&amp;lt;includes&amp;gt;&amp;gt;" style="text;html=1;align=center;verticalAlign=middle;whiteSpace=wrap;rounded=0;" parent="1" vertex="1">
          <mxGeometry x="810" y="157" width="60" height="30" as="geometry" />
        </mxCell>
        <mxCell id="gkGwEhopkfSMYjqPybZG-1" value="" style="endArrow=none;dashed=1;html=1;dashPattern=1 3;strokeWidth=2;rounded=0;exitX=1;exitY=0.5;exitDx=0;exitDy=0;" edge="1" parent="1" source="SDAM3eLajE_gOhNM8xKB-30">
          <mxGeometry width="50" height="50" relative="1" as="geometry">
            <mxPoint x="637" y="130" as="sourcePoint" />
            <mxPoint x="767" y="175" as="targetPoint" />
          </mxGeometry>
        </mxCell>
        <mxCell id="gkGwEhopkfSMYjqPybZG-2" value="&amp;lt;&amp;lt;include&amp;gt;&amp;gt;" style="text;html=1;align=center;verticalAlign=middle;whiteSpace=wrap;rounded=0;" vertex="1" parent="1">
          <mxGeometry x="730" y="169" width="60" height="30" as="geometry" />
        </mxCell>
        <mxCell id="gkGwEhopkfSMYjqPybZG-4" value="" style="endArrow=none;dashed=1;html=1;dashPattern=1 3;strokeWidth=2;rounded=0;exitX=1;exitY=0.5;exitDx=0;exitDy=0;startArrow=open;startFill=0;entryX=0.5;entryY=1;entryDx=0;entryDy=0;" edge="1" parent="1" target="gkGwEhopkfSMYjqPybZG-2">
          <mxGeometry width="50" height="50" relative="1" as="geometry">
            <mxPoint x="578" y="277" as="sourcePoint" />
            <mxPoint x="690" y="229" as="targetPoint" />
          </mxGeometry>
        </mxCell>
      </root>
    </mxGraphModel>
  </diagram>
</mxfile>
